<svg version="1.1" xmlns="http://www.w3.org/2000/svg" xmlns:xlink="http://www.w3.org/1999/xlink" x="0px" y="0px"
	 viewBox="0 0 341.5 60" enable-background="new 0 0 341.5 60" xml:space="preserve">
<g id="Calque_3">
	<text transform="matrix(1 0 0 1 81.0065 46.2847)" fill="#333333" font-family="'PrentonRPPro-Regular'" font-size="46.771px">PHP UPS API</text>
</g>
<g id="Calque_4">
	<rect fill="#351C14" width="60" height="60"/>
	<g>
		<path fill="#FFB500" stroke="#000000" stroke-width="0.25" d="M51.4,10C47,7.6,42,6.4,38,5.9c-4.4-0.6-7.6-0.5-7.6-0.5
			c0,0-0.8,0-2.3,0c-1.5,0.1-3.5,0.2-5.9,0.5c-1.9,0.3-3.9,0.7-6,1.3c-2.3,0.7-4.6,1.5-6.8,2.8c0,1.7,0,3.4,0,5.1c0,0.5,0,1.4,0,1.9
			c0,1.4,0,2.3,0,3.7c0,4.7,0,9.4,0,14.2c0,5,1.7,9.5,5.5,12.6c0.9,0.7,2.2,1.6,3.7,2.4c1.3,0.7,2.7,1.4,4.1,2.1
			c1.7,0.8,3.3,1.5,4.6,2.1c1.8,0.8,3.1,1.3,3,1.3c0,0,2.8-1.1,6-2.7c3.5-1.6,7.6-3.7,9.4-5.3c3.8-3.2,5.5-7.6,5.5-12.6
			c0-4.7,0-9.4,0-14.2c0-1.4,0-2.5,0-3.9c0-0.5,0-1.3,0-1.8C51.4,13.4,51.4,11.7,51.4,10z"/>
		<path fill="#351C15" d="M49.8,10.3c-6.1-0.6-12.9-0.8-19.6,0.5c-2,0.4-3.9,0.9-5.8,1.6c-2.1,0.7-4.1,1.6-6.1,2.7
			c-2.5,1.4-4.9,3.2-7.2,5.4c0,0.5,0,0.9,0,1.4c0,2.2,0,4.5,0,6.7c0,2.1,0,4.2,0,6.3c0,4.7,1.7,8.6,5,11.3c1.9,1.3,4,2.6,6.1,3.6
			c1.5,0.8,3.1,1.4,4.6,2.2c1.2,0.6,2.5,1,3.7,1.7c2.5-1,11.5-5,14.4-7.5c3.3-2.7,5-6.7,5-11.3c0-4.5,0-9,0-13.5c0-3.1,0-6.1,0-9.2
			C49.8,11.6,49.8,11,49.8,10.3z"/>
	</g>
</g>
</svg>
