<svg version="1.1" xmlns="http://www.w3.org/2000/svg" xmlns:xlink="http://www.w3.org/1999/xlink" x="0px" y="0px"
	 viewBox="0 0 279.8 49.2" enable-background="new 0 0 279.8 49.2" xml:space="preserve" width="280" height="50">
<g id="Calque_3">
	<g>
		<path fill="#333333" d="M76.3,27.9h-2.5v10h-3.6V11.9c2.6-0.1,5.3-0.2,7.3-0.2c5.6,0,9.2,2.8,9.2,7.3
			C86.7,24.7,82.1,27.9,76.3,27.9z M76.9,14.7h-3.1V25h2.8c3.4,0,6.3-1.9,6.3-5.4C82.9,16.7,80.8,14.7,76.9,14.7z"/>
		<path fill="#333333" d="M109.2,37.9V26H95v11.9h-3.6V11.9H95v11h14.1v-11h3.6v26.1H109.2z"/>
		<path fill="#333333" d="M126.5,27.9H124v10h-3.6V11.9c2.6-0.1,5.3-0.2,7.3-0.2c5.6,0,9.2,2.8,9.2,7.3
			C136.9,24.7,132.3,27.9,126.5,27.9z M127.1,14.7H124V25h2.8c3.4,0,6.3-1.9,6.3-5.4C133.1,16.7,131,14.7,127.1,14.7z"/>
		<path fill="#333333" d="M159.6,38.4c-4.9,0-9.9-2.8-9.9-9.3V11.9h3.6v16.8c0,4.8,3.8,6.6,6.9,6.6c3.4,0,6.6-1.7,6.6-6.4V11.9h3.5
			v16.9C170.4,35.3,165.6,38.4,159.6,38.4z"/>
		<path fill="#333333" d="M184,27.9h-2.5v10h-3.6V11.9c2.6-0.1,5.3-0.2,7.3-0.2c5.6,0,9.2,2.8,9.2,7.3
			C194.4,24.7,189.8,27.9,184,27.9z M184.6,14.7h-3.1V25h2.8c3.4,0,6.3-1.9,6.3-5.4C190.7,16.7,188.5,14.7,184.6,14.7z"/>
		<path fill="#333333" d="M203.8,38.4c-2.5,0-4.9-0.5-6.9-1.8l0.7-3.3c2,1.3,4.4,2,6.8,2c3.1,0,5.3-1.8,5.3-4.1c0-2.5-1.7-4-4.8-5.1
			c-5-1.8-7.1-3.9-7.1-7.5c0-4.3,4-7.2,8.8-7.2c2.3,0,4.6,0.7,6.2,1.4l-0.5,3.1c-1.5-0.8-4.1-1.5-6.2-1.5c-2.7,0-4.7,1.5-4.7,3.6
			c0,2.6,1.8,3.6,5,4.8c4.8,1.8,6.9,4.1,6.9,7.7C213.4,34.9,209.3,38.4,203.8,38.4z"/>
		<path fill="#333333" d="M242.8,37.9l-3-8.1h-9.6l-2.8,8.1h-3.7l9.9-26.1h3.3l9.9,26.1H242.8z M235.6,18.5
			c-0.3-0.9-0.7-2.9-0.7-2.9s-0.3,2-0.7,2.9l-3.1,8.4h7.6L235.6,18.5z"/>
		<path fill="#333333" d="M257.2,27.9h-2.5v10h-3.6V11.9c2.6-0.1,5.3-0.2,7.3-0.2c5.6,0,9.2,2.8,9.2,7.3
			C267.6,24.7,263,27.9,257.2,27.9z M257.9,14.7h-3.1V25h2.8c3.4,0,6.3-1.9,6.3-5.4C263.9,16.7,261.8,14.7,257.9,14.7z"/>
		<path fill="#333333" d="M272.4,37.9V11.9h3.6v26.1H272.4z"/>
	</g>
</g>
<g id="Calque_4">
	<rect fill="#351C14" width="49.2" height="49.2"/>
	<g>
		<path fill="#FFB500" stroke="#000000" stroke-width="0.25" d="M42.1,8.2c-3.6-2-7.7-2.9-11-3.4c-3.6-0.5-6.2-0.4-6.2-0.4
			c0,0-0.7,0-1.9,0c-1.2,0-2.9,0.2-4.8,0.4c-1.5,0.2-3.2,0.6-4.9,1.1c-1.9,0.5-3.8,1.3-5.6,2.3c0,1.4,0,2.8,0,4.2c0,0.4,0,1.2,0,1.6
			c0,1.1,0,1.9,0,3c0,3.9,0,7.7,0,11.6c0,4.1,1.4,7.8,4.5,10.3c0.7,0.6,1.8,1.3,3,2c1.1,0.6,2.2,1.2,3.4,1.7
			c1.4,0.7,2.7,1.3,3.8,1.7c1.5,0.7,2.5,1.1,2.5,1.1c0,0,2.3-0.9,4.9-2.2c2.9-1.3,6.2-3,7.7-4.3c3.1-2.6,4.5-6.2,4.5-10.3
			c0-3.9,0-7.7,0-11.6c0-1.1,0-2,0-3.2c0-0.4,0-1.1,0-1.5C42.1,11,42.1,9.6,42.1,8.2z"/>
		<path fill="#351C15" d="M40.8,8.5c-5-0.5-10.6-0.7-16.1,0.4c-1.6,0.3-3.2,0.7-4.8,1.3c-1.7,0.6-3.3,1.3-5,2.2
			c-2.1,1.2-4,2.6-5.9,4.4c0,0.4,0,0.8,0,1.1c0,1.8,0,3.7,0,5.5c0,1.7,0,3.4,0,5.2c0,3.8,1.4,7.1,4.1,9.3c1.5,1.1,3.3,2.1,5,3
			c1.3,0.7,2.5,1.1,3.8,1.8c1,0.5,2,0.9,3.1,1.4c2-0.8,9.4-4.1,11.8-6.1c2.7-2.2,4.1-5.5,4.1-9.3c0-3.7,0-7.4,0-11.1
			c0-2.5,0-5,0-7.5C40.8,9.5,40.8,9,40.8,8.5z"/>
	</g>
</g>
</svg>
